<svg viewBox="298 239.5312 380 79.9376" width="5000" height="1051.8105263157895" xmlns="http://www.w3.org/2000/svg" xmlns:xlink="http://www.w3.org/1999/xlink" preserveAspectRatio="none"><defs></defs><style>.companyName {fill:#EBCACA;fill-opacity:1;}.icon3-str {stroke:#9A7F86;stroke-opacity:1;}.shape {fill:#57233C;fill-opacity:1;}.text {fill:#EBCACA;fill-opacity:1;}</style><defs>
      <filter
        x="298"
        y="239.5312"
        width="380"
        height="79.9376"
        id="global"
        filterUnits="userSpaceOnUse"
        primitiveUnits="userSpaceOnUse"
        color-interpolation-filters="sRGB">
        <feColorMatrix
                        type="matrix"
                        values="0.3333 0.3333 0.3333 0 0 0.3333 0.3333 0.3333 0 0 0.3333 0.3333 0.3333 0 0 0 0 0 1 0"/><feColorMatrix
                        type="matrix"
                        values="-1 0 0 0 1 0 -1 0 0 1 0 0 -1 0 1 0 0 0 1 0"/>
      </filter></defs><g filter="url(#global)"><g opacity="1" transform="rotate(0 422.0606 239.5312)">
<svg width="131.8788" height="57.4832" x="422.0606" y="239.5312" version="1.1" preserveAspectRatio="none" viewBox="1.52 -25.12 59.4 25.8933">
  <g transform="matrix(1 0 0 1 0 0)" class="shape"><path id="id-zm6CZq_Ug2" d="M28.32-0.48Q28.40-0.48 28.40-0.24Q28.40 0 28.32 0L28.32 0L21.20 0Q20.32 0 17.92-3.30Q15.52-6.60 12.12-12.52L12.12-12.52Q11.80-12.48 11.20-12.48L11.20-12.48Q9.64-12.48 9-12.52L9-12.52L9-3.24Q9-2 9.20-1.44Q9.40-0.88 9.98-0.68Q10.56-0.48 11.84-0.48L11.84-0.48Q11.92-0.48 11.92-0.24Q11.92 0 11.84 0L11.84 0Q10.52 0 9.76-0.04L9.76-0.04L6.72-0.08L3.80-0.04Q3 0 1.64 0L1.64 0Q1.52 0 1.52-0.24Q1.52-0.48 1.64-0.48L1.64-0.48Q2.92-0.48 3.50-0.68Q4.08-0.88 4.30-1.46Q4.52-2.04 4.52-3.24L4.52-3.24L4.52-21.76Q4.52-22.96 4.32-23.52Q4.12-24.08 3.52-24.30Q2.92-24.52 1.68-24.52L1.68-24.52Q1.60-24.52 1.60-24.76Q1.60-25 1.68-25L1.68-25L3.80-24.96Q5.64-24.88 6.72-24.88L6.72-24.88Q7.88-24.88 9.28-25L9.28-25Q9.72-25.04 10.42-25.08Q11.12-25.12 12.08-25.12L12.08-25.12Q15.76-25.12 17.78-23.78Q19.80-22.44 19.80-20.04L19.80-20.04Q19.80-18.20 18.68-16.52Q17.56-14.84 15.76-13.80L15.76-13.80Q18.96-8.76 21.14-5.92Q23.32-3.08 25.02-1.78Q26.72-0.48 28.32-0.48L28.32-0.48ZM9-13.68Q9.96-13.52 11.32-13.52L11.32-13.52Q12.76-13.52 13.60-13.96Q14.44-14.40 14.82-15.48Q15.20-16.56 15.20-18.52L15.20-18.52Q15.20-21.80 14.24-23.04Q13.28-24.28 11.48-24.28L11.48-24.28Q10.12-24.28 9.56-23.68Q9-23.08 9-21.68L9-21.68L9-13.68Z M60.84-25Q60.92-25 60.92-24.76Q60.92-24.52 60.84-24.52L60.84-24.52Q59.24-24.52 58.32-23.26Q57.40-22 57.40-19.88L57.40-19.88L57.40 0.60Q57.40 0.72 57.22 0.76Q57.04 0.80 56.96 0.72L56.96 0.72L38.20-20.64L38.20-5.08Q38.20-2.96 39.08-1.72Q39.96-0.48 41.52-0.48L41.52-0.48Q41.60-0.48 41.60-0.24Q41.60 0 41.52 0L41.52 0Q40.40 0 39.80-0.04L39.80-0.04L37.64-0.08L35.16-0.04Q34.48 0 33.20 0L33.20 0Q33.08 0 33.08-0.24Q33.08-0.48 33.20-0.48L33.20-0.48Q34.96-0.48 35.98-1.72Q37-2.96 37-5.08L37-5.08L37-22Q35.68-23.44 34.74-23.98Q33.80-24.52 32.80-24.52L32.80-24.52Q32.72-24.52 32.72-24.76Q32.72-25 32.80-25L32.80-25L34.48-24.96Q35-24.92 36-24.92L36-24.92L39.04-24.96Q39.60-25 40.40-25L40.40-25Q40.72-25 40.88-24.84Q41.04-24.68 41.44-24.16L41.44-24.16Q42.12-23.24 42.40-22.92L42.40-22.92L56.24-6.96L56.24-19.88Q56.24-22.04 55.36-23.28Q54.48-24.52 52.92-24.52L52.92-24.52Q52.84-24.52 52.84-24.76Q52.84-25 52.92-25L52.92-25L54.64-24.96Q55.92-24.88 56.80-24.88L56.80-24.88Q57.60-24.88 59.04-24.96L59.04-24.96L60.84-25Z"/></g>
</svg>
</g><g opacity="1" transform="rotate(0 298 305.9962)">
<svg width="380" height="13.4726" x="298" y="305.9962" version="1.1" preserveAspectRatio="none" viewBox="-0.04 -30.28 1072.9199999999998 38.040000000000006">
  <g transform="matrix(1 0 0 1 0 0)" class="text"><path id="id-6izo4zJp41" d="M25.12 0L22.04-7L7.16-7L4.08 0L-0.04 0L12.64-28L16.60-28L29.32 0L25.12 0ZM8.56-10.20L20.64-10.20L14.60-23.92L8.56-10.20Z M70.68-21.20L74.44-21.20L65.16 0L61.24 0L51.96-21.20L55.96-21.20L63.24-4.20L70.68-21.20Z M84.04 0L84.04-21.20L87.88-21.20L87.88 0L84.04 0ZM85.96-25.28Q84.84-25.28 84.10-26Q83.36-26.72 83.36-27.76L83.36-27.76Q83.36-28.80 84.10-29.54Q84.84-30.28 85.96-30.28L85.96-30.28Q87.08-30.28 87.82-29.58Q88.56-28.88 88.56-27.84L88.56-27.84Q88.56-26.76 87.82-26.02Q87.08-25.28 85.96-25.28L85.96-25.28Z M117.36-29.68L121.20-29.68L121.20 0L117.52 0L117.52-3.36Q116.24-1.60 114.28-0.68Q112.32 0.24 109.96 0.24L109.96 0.24Q106.88 0.24 104.44-1.12Q102-2.48 100.62-4.94Q99.24-7.40 99.24-10.60L99.24-10.60Q99.24-13.80 100.62-16.24Q102-18.68 104.44-20.04Q106.88-21.40 109.96-21.40L109.96-21.40Q112.24-21.40 114.16-20.54Q116.08-19.68 117.36-18L117.36-18L117.36-29.68ZM110.28-3.12Q112.28-3.12 113.92-4.06Q115.56-5 116.48-6.70Q117.40-8.40 117.40-10.60L117.40-10.60Q117.40-12.80 116.48-14.50Q115.56-16.20 113.92-17.12Q112.28-18.04 110.28-18.04L110.28-18.04Q108.24-18.04 106.62-17.12Q105-16.20 104.06-14.50Q103.12-12.80 103.12-10.60L103.12-10.60Q103.12-8.40 104.06-6.70Q105-5 106.62-4.06Q108.24-3.12 110.28-3.12L110.28-3.12Z M142.20-21.40Q146.60-21.40 148.94-19.24Q151.28-17.08 151.28-12.80L151.28-12.80L151.28 0L147.64 0L147.64-2.80Q146.68-1.32 144.90-0.54Q143.12 0.24 140.68 0.24L140.68 0.24Q137.12 0.24 134.98-1.48Q132.84-3.20 132.84-6L132.84-6Q132.84-8.80 134.88-10.50Q136.92-12.20 141.36-12.20L141.36-12.20L147.44-12.20L147.44-12.96Q147.44-15.44 146-16.76Q144.56-18.08 141.76-18.08L141.76-18.08Q139.88-18.08 138.08-17.46Q136.28-16.84 135.04-15.80L135.04-15.80L133.44-18.68Q135.08-20 137.36-20.70Q139.64-21.40 142.20-21.40L142.20-21.40ZM141.32-2.72Q143.52-2.72 145.12-3.70Q146.72-4.68 147.44-6.48L147.44-6.48L147.44-9.44L141.52-9.44Q136.64-9.44 136.64-6.16L136.64-6.16Q136.64-4.56 137.88-3.64Q139.12-2.72 141.32-2.72L141.32-2.72Z M200.32-10.48Q200.32-10.04 200.24-9.32L200.24-9.32L183.04-9.32Q183.40-6.52 185.50-4.82Q187.60-3.12 190.72-3.12L190.72-3.12Q194.52-3.12 196.84-5.68L196.84-5.68L198.96-3.20Q197.52-1.52 195.38-0.64Q193.24 0.24 190.60 0.24L190.60 0.24Q187.24 0.24 184.64-1.14Q182.04-2.52 180.62-5Q179.20-7.48 179.20-10.60L179.20-10.60Q179.20-13.68 180.58-16.16Q181.96-18.64 184.38-20.02Q186.80-21.40 189.84-21.40L189.84-21.40Q192.88-21.40 195.26-20.02Q197.64-18.64 198.98-16.16Q200.32-13.68 200.32-10.48L200.32-10.48ZM189.84-18.16Q187.08-18.16 185.22-16.48Q183.36-14.80 183.04-12.08L183.04-12.08L196.64-12.08Q196.32-14.76 194.46-16.46Q192.60-18.16 189.84-18.16L189.84-18.16ZM186.80-24.28L192.24-29.48L197.12-29.48L190.40-24.28L186.80-24.28Z M254.92-21.40Q258.92-21.40 261.26-19.08Q263.60-16.76 263.60-12.20L263.60-12.20L263.60 0L259.76 0L259.76-11.76Q259.76-14.84 258.34-16.40Q256.92-17.96 254.28-17.96L254.28-17.96Q251.36-17.96 249.64-16.14Q247.92-14.32 247.92-10.92L247.92-10.92L247.92 0L244.08 0L244.08-11.76Q244.08-14.84 242.66-16.40Q241.24-17.96 238.60-17.96L238.60-17.96Q235.68-17.96 233.96-16.14Q232.24-14.32 232.24-10.92L232.24-10.92L232.24 0L228.40 0L228.40-21.20L232.08-21.20L232.08-18.04Q233.24-19.68 235.12-20.54Q237.00-21.40 239.40-21.40L239.40-21.40Q241.88-21.40 243.80-20.40Q245.72-19.40 246.76-17.48L246.76-17.48Q247.96-19.32 250.10-20.36Q252.24-21.40 254.92-21.40L254.92-21.40Z M292.60-21.20L296.44-21.20L296.44 0L292.80 0L292.80-3.20Q291.64-1.56 289.74-0.66Q287.84 0.24 285.60 0.24L285.60 0.24Q281.36 0.24 278.92-2.10Q276.48-4.44 276.48-9L276.48-9L276.48-21.20L280.32-21.20L280.32-9.44Q280.32-6.36 281.80-4.78Q283.28-3.20 286.04-3.20L286.04-3.20Q289.08-3.20 290.84-5.04Q292.60-6.88 292.60-10.24L292.60-10.24L292.60-21.20Z M309.76 0L309.76-21.20L313.60-21.20L313.60 0L309.76 0ZM311.68-25.28Q310.56-25.28 309.82-26Q309.08-26.72 309.08-27.76L309.08-27.76Q309.08-28.80 309.82-29.54Q310.56-30.28 311.68-30.28L311.68-30.28Q312.80-30.28 313.54-29.58Q314.28-28.88 314.28-27.84L314.28-27.84Q314.28-26.76 313.54-26.02Q312.80-25.28 311.68-25.28L311.68-25.28Z M337.64-4L338.84-1.24Q338-0.52 336.76-0.14Q335.52 0.24 334.20 0.24L334.20 0.24Q331 0.24 329.24-1.48Q327.48-3.20 327.48-6.40L327.48-6.40L327.48-18.04L323.88-18.04L323.88-21.20L327.48-21.20L327.48-25.84L331.32-25.84L331.32-21.20L337.40-21.20L337.40-18.04L331.32-18.04L331.32-6.56Q331.32-4.84 332.18-3.92Q333.04-3 334.64-3L334.64-3Q336.40-3 337.64-4L337.64-4Z M357.84 0.24Q354.68 0.24 352.16-1.16Q349.64-2.56 348.22-5.02Q346.80-7.48 346.80-10.60L346.80-10.60Q346.80-13.72 348.22-16.18Q349.64-18.64 352.16-20.02Q354.68-21.40 357.84-21.40L357.84-21.40Q361.00-21.40 363.50-20.02Q366.00-18.64 367.42-16.18Q368.84-13.72 368.84-10.60L368.84-10.60Q368.84-7.48 367.42-5.02Q366.00-2.56 363.50-1.16Q361.00 0.24 357.84 0.24L357.84 0.24ZM357.84-3.12Q359.88-3.12 361.50-4.06Q363.12-5 364.04-6.70Q364.96-8.40 364.96-10.60L364.96-10.60Q364.96-12.80 364.04-14.50Q363.12-16.20 361.50-17.12Q359.88-18.04 357.84-18.04L357.84-18.04Q355.80-18.04 354.18-17.12Q352.56-16.20 351.62-14.50Q350.68-12.80 350.68-10.60L350.68-10.60Q350.68-8.40 351.62-6.70Q352.56-5 354.18-4.06Q355.80-3.12 357.84-3.12L357.84-3.12Z M406.16 0.24Q402.92 0.24 400.38-1.16Q397.84-2.56 396.40-5.02Q394.96-7.48 394.96-10.60L394.96-10.60Q394.96-13.72 396.40-16.18Q397.84-18.64 400.38-20.02Q402.92-21.40 406.16-21.40L406.16-21.40Q409.04-21.40 411.30-20.24Q413.56-19.08 414.80-16.88L414.80-16.88L411.88-15Q410.88-16.52 409.40-17.28Q407.92-18.04 406.12-18.04L406.12-18.04Q404.04-18.04 402.38-17.12Q400.72-16.20 399.78-14.50Q398.84-12.80 398.84-10.60L398.84-10.60Q398.84-8.36 399.78-6.66Q400.72-4.96 402.38-4.04Q404.04-3.12 406.12-3.12L406.12-3.12Q407.92-3.12 409.40-3.88Q410.88-4.64 411.88-6.16L411.88-6.16L414.80-4.32Q413.56-2.12 411.30-0.94Q409.04 0.24 406.16 0.24L406.16 0.24Z M441.68-21.20L445.52-21.20L445.52 0L441.88 0L441.88-3.20Q440.72-1.56 438.82-0.66Q436.92 0.24 434.68 0.24L434.68 0.24Q430.44 0.24 428.00-2.10Q425.56-4.44 425.56-9L425.56-9L425.56-21.20L429.40-21.20L429.40-9.44Q429.40-6.36 430.88-4.78Q432.36-3.20 435.12-3.20L435.12-3.20Q438.16-3.20 439.92-5.04Q441.68-6.88 441.68-10.24L441.68-10.24L441.68-21.20Z M462.52-17.64Q463.52-19.48 465.48-20.44Q467.44-21.40 470.24-21.40L470.24-21.40L470.24-17.68Q469.92-17.72 469.36-17.72L469.36-17.72Q466.24-17.72 464.46-15.86Q462.68-14 462.68-10.56L462.68-10.56L462.68 0L458.84 0L458.84-21.20L462.52-21.20L462.52-17.64Z M492.56-4L493.76-1.24Q492.92-0.52 491.68-0.14Q490.44 0.24 489.12 0.24L489.12 0.24Q485.92 0.24 484.16-1.48Q482.40-3.20 482.40-6.40L482.40-6.40L482.40-18.04L478.80-18.04L478.80-21.20L482.40-21.20L482.40-25.84L486.24-25.84L486.24-21.20L492.32-21.20L492.32-18.04L486.24-18.04L486.24-6.56Q486.24-4.84 487.10-3.92Q487.96-3 489.56-3L489.56-3Q491.32-3 492.56-4L492.56-4Z M512.12-21.40Q516.52-21.40 518.86-19.24Q521.20-17.08 521.20-12.80L521.20-12.80L521.20 0L517.56 0L517.56-2.80Q516.60-1.32 514.82-0.54Q513.04 0.24 510.60 0.24L510.60 0.24Q507.04 0.24 504.90-1.48Q502.76-3.20 502.76-6L502.76-6Q502.76-8.80 504.80-10.50Q506.84-12.20 511.28-12.20L511.28-12.20L517.36-12.20L517.36-12.96Q517.36-15.44 515.92-16.76Q514.48-18.08 511.68-18.08L511.68-18.08Q509.80-18.08 508.00-17.46Q506.20-16.84 504.96-15.80L504.96-15.80L503.36-18.68Q505.00-20 507.28-20.70Q509.56-21.40 512.12-21.40L512.12-21.40ZM511.24-2.72Q513.44-2.72 515.04-3.70Q516.64-4.68 517.36-6.48L517.36-6.48L517.36-9.44L511.44-9.44Q506.56-9.44 506.56-6.16L506.56-6.16Q506.56-4.56 507.80-3.64Q509.04-2.72 511.24-2.72L511.24-2.72Z M562.32-21.40Q565.40-21.40 567.84-20.04Q570.28-18.68 571.66-16.24Q573.04-13.80 573.04-10.60L573.04-10.60Q573.04-7.40 571.66-4.94Q570.28-2.48 567.84-1.12Q565.40 0.24 562.32 0.24L562.32 0.24Q560.04 0.24 558.14-0.64Q556.24-1.52 554.92-3.20L554.92-3.20L554.92 7.76L551.08 7.76L551.08-21.20L554.76-21.20L554.76-17.84Q556.04-19.60 558.00-20.50Q559.96-21.40 562.32-21.40L562.32-21.40ZM562.00-3.12Q564.04-3.12 565.66-4.06Q567.28-5 568.22-6.70Q569.16-8.40 569.16-10.60L569.16-10.60Q569.16-12.80 568.22-14.50Q567.28-16.20 565.66-17.12Q564.04-18.04 562.00-18.04L562.00-18.04Q560.00-18.04 558.38-17.10Q556.76-16.16 555.82-14.48Q554.88-12.80 554.88-10.60L554.88-10.60Q554.88-8.40 555.80-6.70Q556.72-5 558.36-4.06Q560.00-3.12 562.00-3.12L562.00-3.12Z M591.88-21.40Q596.28-21.40 598.62-19.24Q600.96-17.08 600.96-12.80L600.96-12.80L600.96 0L597.32 0L597.32-2.80Q596.36-1.32 594.58-0.54Q592.80 0.24 590.36 0.24L590.36 0.24Q586.80 0.24 584.66-1.48Q582.52-3.20 582.52-6L582.52-6Q582.52-8.80 584.56-10.50Q586.60-12.20 591.04-12.20L591.04-12.20L597.12-12.20L597.12-12.96Q597.12-15.44 595.68-16.76Q594.24-18.08 591.44-18.08L591.44-18.08Q589.56-18.08 587.76-17.46Q585.96-16.84 584.72-15.80L584.72-15.80L583.12-18.68Q584.76-20 587.04-20.70Q589.32-21.40 591.88-21.40L591.88-21.40ZM591.00-2.72Q593.20-2.72 594.80-3.70Q596.40-4.68 597.12-6.48L597.12-6.48L597.12-9.44L591.20-9.44Q586.32-9.44 586.32-6.16L586.32-6.16Q586.32-4.56 587.56-3.64Q588.80-2.72 591.00-2.72L591.00-2.72Z M617.76-17.64Q618.76-19.48 620.72-20.44Q622.68-21.40 625.48-21.40L625.48-21.40L625.48-17.68Q625.16-17.72 624.60-17.72L624.60-17.72Q621.48-17.72 619.70-15.86Q617.92-14 617.92-10.56L617.92-10.56L617.92 0L614.08 0L614.08-21.20L617.76-21.20L617.76-17.64Z M643.88-21.40Q648.28-21.40 650.62-19.24Q652.96-17.08 652.96-12.80L652.96-12.80L652.96 0L649.32 0L649.32-2.80Q648.36-1.32 646.58-0.54Q644.80 0.24 642.36 0.24L642.36 0.24Q638.80 0.24 636.66-1.48Q634.52-3.20 634.52-6L634.52-6Q634.52-8.80 636.56-10.50Q638.60-12.20 643.04-12.20L643.04-12.20L649.12-12.20L649.12-12.96Q649.12-15.44 647.68-16.76Q646.24-18.08 643.44-18.08L643.44-18.08Q641.56-18.08 639.76-17.46Q637.96-16.84 636.72-15.80L636.72-15.80L635.12-18.68Q636.76-20 639.04-20.70Q641.32-21.40 643.88-21.40L643.88-21.40ZM643.00-2.72Q645.20-2.72 646.80-3.70Q648.40-4.68 649.12-6.48L649.12-6.48L649.12-9.44L643.20-9.44Q638.32-9.44 638.32-6.16L638.32-6.16Q638.32-4.56 639.56-3.64Q640.80-2.72 643.00-2.72L643.00-2.72Z M694.16-21.40Q698.20-21.40 700.58-19.06Q702.96-16.72 702.96-12.20L702.96-12.20L702.96 0L699.12 0L699.12-11.76Q699.12-14.84 697.64-16.40Q696.16-17.96 693.40-17.96L693.40-17.96Q690.28-17.96 688.48-16.14Q686.68-14.32 686.68-10.92L686.68-10.92L686.68 0L682.84 0L682.84-21.20L686.52-21.20L686.52-18Q687.68-19.64 689.66-20.52Q691.64-21.40 694.16-21.40L694.16-21.40Z M723.80-21.40Q728.20-21.40 730.54-19.24Q732.88-17.08 732.88-12.80L732.88-12.80L732.88 0L729.24 0L729.24-2.80Q728.28-1.32 726.50-0.54Q724.72 0.24 722.28 0.24L722.28 0.24Q718.72 0.24 716.58-1.48Q714.44-3.20 714.44-6L714.44-6Q714.44-8.80 716.48-10.50Q718.52-12.20 722.96-12.20L722.96-12.20L729.04-12.20L729.04-12.96Q729.04-15.44 727.60-16.76Q726.16-18.08 723.36-18.08L723.36-18.08Q721.48-18.08 719.68-17.46Q717.88-16.84 716.64-15.80L716.64-15.80L715.04-18.68Q716.68-20 718.96-20.70Q721.24-21.40 723.80-21.40L723.80-21.40ZM722.92-2.72Q725.12-2.72 726.72-3.70Q728.32-4.68 729.04-6.48L729.04-6.48L729.04-9.44L723.12-9.44Q718.24-9.44 718.24-6.16L718.24-6.16Q718.24-4.56 719.48-3.64Q720.72-2.72 722.92-2.72L722.92-2.72ZM726.88-24.40Q725.92-24.40 725.22-24.80Q724.52-25.20 723.48-26L723.48-26Q722.88-26.56 722.44-26.82Q722.00-27.08 721.56-27.08L721.56-27.08Q720.68-27.08 720.12-26.42Q719.56-25.76 719.52-24.60L719.52-24.60L717.36-24.60Q717.44-26.84 718.50-28.16Q719.56-29.48 721.28-29.48L721.28-29.48Q722.24-29.48 722.98-29.06Q723.72-28.64 724.68-27.84L724.68-27.84Q725.36-27.28 725.76-27.02Q726.16-26.76 726.60-26.76L726.60-26.76Q727.48-26.76 728.04-27.40Q728.60-28.04 728.64-29.16L728.64-29.16L730.80-29.16Q730.72-27 729.66-25.70Q728.60-24.40 726.88-24.40L726.88-24.40Z M755.20 0.24Q752.04 0.24 749.52-1.16Q747.00-2.56 745.58-5.02Q744.16-7.48 744.16-10.60L744.16-10.60Q744.16-13.72 745.58-16.18Q747.00-18.64 749.52-20.02Q752.04-21.40 755.20-21.40L755.20-21.40Q758.36-21.40 760.86-20.02Q763.36-18.64 764.78-16.18Q766.20-13.72 766.20-10.60L766.20-10.60Q766.20-7.48 764.78-5.02Q763.36-2.56 760.86-1.16Q758.36 0.24 755.20 0.24L755.20 0.24ZM755.20-3.12Q757.24-3.12 758.86-4.06Q760.48-5 761.40-6.70Q762.32-8.40 762.32-10.60L762.32-10.60Q762.32-12.80 761.40-14.50Q760.48-16.20 758.86-17.12Q757.24-18.04 755.20-18.04L755.20-18.04Q753.16-18.04 751.54-17.12Q749.92-16.20 748.98-14.50Q748.04-12.80 748.04-10.60L748.04-10.60Q748.04-8.40 748.98-6.70Q749.92-5 751.54-4.06Q753.16-3.12 755.20-3.12L755.20-3.12Z M805.00-4L806.20-1.24Q805.36-0.52 804.12-0.14Q802.88 0.24 801.56 0.24L801.56 0.24Q798.36 0.24 796.60-1.48Q794.84-3.20 794.84-6.40L794.84-6.40L794.84-18.04L791.24-18.04L791.24-21.20L794.84-21.20L794.84-25.84L798.68-25.84L798.68-21.20L804.76-21.20L804.76-18.04L798.68-18.04L798.68-6.56Q798.68-4.84 799.54-3.92Q800.40-3 802.00-3L802.00-3Q803.76-3 805.00-4L805.00-4Z M835.28-10.48Q835.28-10.04 835.20-9.32L835.20-9.32L818.00-9.32Q818.36-6.52 820.46-4.82Q822.56-3.12 825.68-3.12L825.68-3.12Q829.48-3.12 831.80-5.68L831.80-5.68L833.92-3.20Q832.48-1.52 830.34-0.64Q828.20 0.24 825.56 0.24L825.56 0.24Q822.20 0.24 819.60-1.14Q817.00-2.52 815.58-5Q814.16-7.48 814.16-10.60L814.16-10.60Q814.16-13.68 815.54-16.16Q816.92-18.64 819.34-20.02Q821.76-21.40 824.80-21.40L824.80-21.40Q827.84-21.40 830.22-20.02Q832.60-18.64 833.94-16.16Q835.28-13.68 835.28-10.48L835.28-10.48ZM824.80-18.16Q822.04-18.16 820.18-16.48Q818.32-14.80 818.00-12.08L818.00-12.08L831.60-12.08Q831.28-14.76 829.42-16.46Q827.56-18.16 824.80-18.16L824.80-18.16Z M850.28-17.64Q851.28-19.48 853.24-20.44Q855.20-21.40 858.00-21.40L858.00-21.40L858.00-17.68Q857.68-17.72 857.12-17.72L857.12-17.72Q854.00-17.72 852.22-15.86Q850.44-14 850.44-10.56L850.44-10.56L850.44 0L846.60 0L846.60-21.20L850.28-21.20L850.28-17.64Z M901.68-21.20L905.52-21.20L905.52 0L901.88 0L901.88-3.20Q900.72-1.56 898.82-0.66Q896.92 0.24 894.68 0.24L894.68 0.24Q890.44 0.24 888.00-2.10Q885.56-4.44 885.56-9L885.56-9L885.56-21.20L889.40-21.20L889.40-9.44Q889.40-6.36 890.88-4.78Q892.36-3.20 895.12-3.20L895.12-3.20Q898.16-3.20 899.92-5.04Q901.68-6.88 901.68-10.24L901.68-10.24L901.68-21.20Z M945.36-21.40Q949.36-21.40 951.70-19.08Q954.04-16.76 954.04-12.20L954.04-12.20L954.04 0L950.20 0L950.20-11.76Q950.20-14.84 948.78-16.40Q947.36-17.96 944.72-17.96L944.72-17.96Q941.80-17.96 940.08-16.14Q938.36-14.32 938.36-10.92L938.36-10.92L938.36 0L934.52 0L934.52-11.76Q934.52-14.84 933.10-16.40Q931.68-17.96 929.04-17.96L929.04-17.96Q926.12-17.96 924.40-16.14Q922.68-14.32 922.68-10.92L922.68-10.92L922.68 0L918.84 0L918.84-21.20L922.52-21.20L922.52-18.04Q923.68-19.68 925.56-20.54Q927.44-21.40 929.84-21.40L929.84-21.40Q932.32-21.40 934.24-20.40Q936.16-19.40 937.20-17.48L937.20-17.48Q938.40-19.32 940.54-20.36Q942.68-21.40 945.36-21.40L945.36-21.40Z M992.60 0.32Q989.44 0.32 986.50-0.66Q983.56-1.64 981.88-3.20L981.88-3.20L983.36-6.32Q984.96-4.88 987.46-3.98Q989.96-3.08 992.60-3.08L992.60-3.08Q996.08-3.08 997.80-4.26Q999.52-5.44 999.52-7.40L999.52-7.40Q999.52-8.84 998.58-9.74Q997.64-10.64 996.26-11.12Q994.88-11.60 992.36-12.20L992.36-12.20Q989.20-12.96 987.26-13.72Q985.32-14.48 983.94-16.06Q982.56-17.64 982.56-20.32L982.56-20.32Q982.56-22.56 983.74-24.36Q984.92-26.16 987.32-27.24Q989.72-28.32 993.28-28.32L993.28-28.32Q995.76-28.32 998.16-27.68Q1000.56-27.04 1002.28-25.84L1002.28-25.84L1000.96-22.64Q999.20-23.76 997.20-24.34Q995.20-24.92 993.28-24.92L993.28-24.92Q989.88-24.92 988.18-23.68Q986.48-22.44 986.48-20.48L986.48-20.48Q986.48-19.04 987.44-18.14Q988.40-17.24 989.82-16.74Q991.24-16.24 993.68-15.68L993.68-15.68Q996.84-14.92 998.76-14.16Q1000.68-13.40 1002.06-11.84Q1003.44-10.28 1003.44-7.64L1003.44-7.64Q1003.44-5.44 1002.24-3.62Q1001.04-1.80 998.60-0.74Q996.16 0.32 992.60 0.32L992.60 0.32Z M1014.72 0L1014.72-21.20L1018.56-21.20L1018.56 0L1014.72 0ZM1016.64-25.28Q1015.52-25.28 1014.78-26Q1014.04-26.72 1014.04-27.76L1014.04-27.76Q1014.04-28.80 1014.78-29.54Q1015.52-30.28 1016.64-30.28L1016.64-30.28Q1017.76-30.28 1018.50-29.58Q1019.24-28.88 1019.24-27.84L1019.24-27.84Q1019.24-26.76 1018.50-26.02Q1017.76-25.28 1016.64-25.28L1016.64-25.28Z M1042.60-4L1043.80-1.24Q1042.96-0.52 1041.72-0.14Q1040.48 0.24 1039.16 0.24L1039.16 0.24Q1035.96 0.24 1034.20-1.48Q1032.44-3.20 1032.44-6.40L1032.44-6.40L1032.44-18.04L1028.84-18.04L1028.84-21.20L1032.44-21.20L1032.44-25.84L1036.28-25.84L1036.28-21.20L1042.36-21.20L1042.36-18.04L1036.28-18.04L1036.28-6.56Q1036.28-4.84 1037.14-3.92Q1038.00-3 1039.60-3L1039.60-3Q1041.36-3 1042.60-4L1042.60-4Z M1072.88-10.48Q1072.88-10.04 1072.80-9.32L1072.80-9.32L1055.60-9.32Q1055.96-6.52 1058.06-4.82Q1060.16-3.12 1063.28-3.12L1063.28-3.12Q1067.08-3.12 1069.40-5.68L1069.40-5.68L1071.52-3.20Q1070.08-1.52 1067.94-0.64Q1065.80 0.24 1063.16 0.24L1063.16 0.24Q1059.80 0.24 1057.20-1.14Q1054.60-2.52 1053.18-5Q1051.76-7.48 1051.76-10.60L1051.76-10.60Q1051.76-13.68 1053.14-16.16Q1054.52-18.64 1056.94-20.02Q1059.36-21.40 1062.40-21.40L1062.40-21.40Q1065.44-21.40 1067.82-20.02Q1070.20-18.64 1071.54-16.16Q1072.88-13.68 1072.88-10.48L1072.88-10.48ZM1062.40-18.16Q1059.64-18.16 1057.78-16.48Q1055.92-14.80 1055.60-12.08L1055.60-12.08L1069.20-12.08Q1068.88-14.76 1067.02-16.46Q1065.16-18.16 1062.40-18.16L1062.40-18.16Z"/></g>
</svg>
</g><g opacity="1" transform="rotate(0 316.5299 253.0038)">
<svg width="342.9402" height="30.538" x="316.5299" y="253.0038" version="1.1" preserveAspectRatio="none" viewBox="1.68 -25.12 288.52 25.6933">
  <g transform="matrix(1 0 0 1 0 0)" class="companyName"><path id="id-D6z1nYkh14" d="M27.04-0.48Q27.16-0.48 27.16-0.24Q27.16 0 27.04 0L27.04 0L22.40 0Q21.36 0 18.52-3.46Q15.68-6.92 11.64-13.04L11.64-13.04Q10.44-12.72 9.20-12.72L9.20-12.72Q8.52-12.72 7.48-12.80L7.48-12.80L7.48-3.24Q7.48-2 7.74-1.44Q8-0.88 8.72-0.68Q9.44-0.48 11.04-0.48L11.04-0.48Q11.16-0.48 11.16-0.24Q11.16 0 11.04 0L11.04 0Q9.84 0 9.12-0.04L9.12-0.04L6.40-0.08L3.76-0.04Q3.04 0 1.76 0L1.76 0Q1.68 0 1.68-0.24Q1.68-0.48 1.76-0.48L1.76-0.48Q3.36-0.48 4.10-0.68Q4.84-0.88 5.12-1.46Q5.40-2.04 5.40-3.24L5.40-3.24L5.40-21.76Q5.40-22.96 5.14-23.52Q4.88-24.08 4.14-24.30Q3.40-24.52 1.84-24.52L1.84-24.52Q1.72-24.52 1.72-24.76Q1.72-25 1.84-25L1.84-25L3.76-24.96Q5.36-24.88 6.40-24.88L6.40-24.88Q7.12-24.88 7.76-24.92Q8.40-24.96 8.88-25L8.88-25Q10.12-25.12 11.08-25.12L11.08-25.12Q14.24-25.12 15.92-23.80Q17.60-22.48 17.60-20.12L17.60-20.12Q17.60-18.20 16.48-16.50Q15.36-14.80 13.52-13.80L13.52-13.80Q17-8.68 19.32-5.84Q21.64-3 23.46-1.74Q25.28-0.48 27.04-0.48L27.04-0.48ZM7.48-13.76Q9-13.60 9.88-13.60L9.88-13.60Q12.80-13.60 14.08-14.82Q15.36-16.04 15.36-18.76L15.36-18.76Q15.36-21.80 13.94-23.20Q12.52-24.60 10.16-24.60L10.16-24.60Q9.04-24.60 8.52-24.44Q8-24.28 7.74-23.68Q7.48-23.08 7.48-21.68L7.48-21.68L7.48-13.76Z M43.12-5.32Q43.12-5.44 43.34-5.44Q43.56-5.44 43.56-5.32L43.56-5.32Q43.28-2.44 43.28-0.60L43.28-0.60Q43.28-0.28 43.16-0.14Q43.04 0 42.68 0L42.68 0L28.12 0Q28.04 0 28.04-0.24Q28.04-0.48 28.12-0.48L28.12-0.48Q29.48-0.48 30.12-0.68Q30.76-0.88 30.98-1.46Q31.20-2.04 31.20-3.24L31.20-3.24L31.20-15.48Q31.20-16.68 30.98-17.24Q30.76-17.80 30.12-18.02Q29.48-18.24 28.12-18.24L28.12-18.24Q28.04-18.24 28.04-18.48Q28.04-18.72 28.12-18.72L28.12-18.72L41.96-18.72Q42.36-18.72 42.36-18.40L42.36-18.40L42.40-15.92Q42.44-15.16 42.44-14L42.44-14Q42.44-13.88 42.20-13.88Q41.96-13.88 41.96-14L41.96-14Q41.96-15.88 40.88-17.04Q39.80-18.20 38.04-18.20L38.04-18.20L36.68-18.20Q35.16-18.20 34.46-17.98Q33.76-17.76 33.50-17.20Q33.24-16.64 33.24-15.44L33.24-15.44L33.24-9.96Q37.32-10 38.76-10.16Q40.20-10.32 40.36-10.32L40.36-10.32Q40.56-10.32 40.56-9.48L40.56-9.48Q40.56-8.60 40.36-8.60L40.36-8.60Q40.20-8.60 38.76-8.84Q37.32-9.08 33.24-9.12L33.24-9.12L33.24-3.40Q33.24-2.24 33.50-1.66Q33.76-1.08 34.48-0.86Q35.20-0.64 36.68-0.64L36.68-0.64L39-0.64Q40.56-0.64 41.68-1.94Q42.80-3.24 43.12-5.32L43.12-5.32Z M66.72-18.72Q66.80-18.72 66.80-18.48Q66.80-18.24 66.72-18.24L66.72-18.24Q65.24-18.24 64.64-17.42Q64.04-16.60 64.04-14.56L64.04-14.56L64.04 0.44Q64.04 0.52 63.84 0.56Q63.64 0.60 63.56 0.52L63.56 0.52L50.68-15.44L50.00-16.24L50.00-4.16Q50.00-2.12 50.58-1.30Q51.16-0.48 52.60-0.48L52.60-0.48Q52.68-0.48 52.68-0.24Q52.68 0 52.60 0L52.60 0Q51.72 0 51.28-0.04L51.28-0.04L49.64-0.08L47.96-0.04Q47.48 0 46.60 0L46.60 0Q46.48 0 46.48-0.24Q46.48-0.48 46.60-0.48L46.60-0.48Q48.08-0.48 48.64-1.30Q49.20-2.12 49.20-4.16L49.20-4.16L49.20-17.04Q47.88-18.24 46.68-18.24L46.68-18.24Q46.60-18.24 46.60-18.48Q46.60-18.72 46.68-18.72L46.68-18.72L48.92-18.68L50.64-18.72Q50.96-18.72 51.10-18.58Q51.24-18.44 51.52-17.96L51.52-17.96Q51.96-17.24 52.44-16.64L52.44-16.64L63.24-3.08L63.24-14.56Q63.24-16.60 62.68-17.42Q62.12-18.24 60.68-18.24L60.68-18.24Q60.56-18.24 60.56-18.48Q60.56-18.72 60.68-18.72L60.68-18.72L62-18.68Q62.96-18.60 63.64-18.60L63.64-18.60Q64.28-18.60 65.32-18.68L65.32-18.68L66.72-18.72Z M69.68-0.52L81.28-17.84L81.40-18.08Q81.40-18.16 81.08-18.16L81.08-18.16Q75.80-18.16 74.08-17.98Q72.36-17.80 71.76-17.14Q71.16-16.48 70.36-14.28L70.36-14.28Q70.36-14.20 70.20-14.20L70.20-14.20Q70.08-14.20 69.98-14.26Q69.88-14.32 69.92-14.36L69.92-14.36L71.32-19.92Q71.32-20 71.48-20L71.48-20Q71.60-20 71.70-19.94Q71.80-19.88 71.76-19.84L71.76-19.84Q71.68-19.16 72.10-18.94Q72.52-18.72 74.08-18.72L74.08-18.72L83.60-18.72Q83.80-18.72 83.90-18.54Q84-18.36 83.88-18.20L83.88-18.20L72.40-1Q72.24-0.80 72.28-0.72Q72.32-0.64 72.56-0.64L72.56-0.64L78.64-0.64Q80.80-0.64 81.86-0.94Q82.92-1.24 83.46-2.08Q84-2.92 84.36-4.72L84.36-4.72Q84.40-4.84 84.62-4.84Q84.84-4.84 84.84-4.72L84.84-4.72L84.40-0.32Q84.40-0.20 84.30-0.06Q84.20 0.08 84.04 0.08L84.04 0.08L69.92 0Q69.72 0 69.64-0.18Q69.56-0.36 69.68-0.52L69.68-0.52Z M97.20 0.48Q94.40 0.48 92.22-0.84Q90.04-2.16 88.86-4.38Q87.68-6.60 87.68-9.20L87.68-9.20Q87.68-12.32 89.32-14.60Q90.96-16.88 93.46-18.04Q95.96-19.20 98.56-19.20L98.56-19.20Q101.36-19.20 103.48-17.84Q105.60-16.48 106.74-14.28Q107.88-12.08 107.88-9.68L107.88-9.68Q107.88-6.96 106.44-4.62Q105-2.28 102.54-0.90Q100.08 0.48 97.20 0.48L97.20 0.48ZM98.28-0.32Q101.60-0.32 103.58-2.52Q105.56-4.72 105.56-8.64L105.56-8.64Q105.56-11.32 104.60-13.54Q103.64-15.76 101.76-17.08Q99.88-18.40 97.24-18.40L97.24-18.40Q93.80-18.40 91.90-16.20Q90-14 90-10.16L90-10.16Q90-7.44 90.98-5.20Q91.96-2.96 93.84-1.64Q95.72-0.32 98.28-0.32L98.28-0.32Z M146.68-25Q146.80-25 146.80-24.76Q146.80-24.52 146.68-24.52L146.68-24.52Q144.96-24.52 144.26-23.68Q143.56-22.84 143.56-20.80L143.56-20.80L143.56 0.44Q143.56 0.52 143.36 0.56Q143.16 0.60 143.08 0.52L143.08 0.52L125-21.72L124.32-22.48L124.32-4.16Q124.32-2.12 125-1.30Q125.68-0.48 127.36-0.48L127.36-0.48Q127.48-0.48 127.48-0.24Q127.48 0 127.36 0L127.36 0Q126.40 0 125.88-0.04L125.88-0.04L123.96-0.08L122-0.04Q121.48 0 120.44 0L120.44 0Q120.36 0 120.36-0.24Q120.36-0.48 120.44-0.48L120.44-0.48Q122.16-0.48 122.80-1.28Q123.44-2.08 123.44-4.16L123.44-4.16L123.44-23.32Q122.04-24.52 120.56-24.52L120.56-24.52Q120.44-24.52 120.44-24.76Q120.44-25 120.56-25L120.56-25L122-24.96Q122.44-24.92 123.24-24.92L123.24-24.92Q123.92-24.92 124.36-24.96Q124.80-25 125.04-25L125.04-25Q125.32-25 125.50-24.86Q125.68-24.72 125.92-24.28L125.92-24.28Q126.36-23.56 126.88-22.92L126.88-22.92L142.68-3.28L142.68-20.80Q142.68-22.84 142.04-23.68Q141.40-24.52 139.72-24.52L139.72-24.52Q139.64-24.52 139.64-24.76Q139.64-25 139.72-25L139.72-25L141.24-24.96Q142.44-24.88 143.16-24.88L143.16-24.88Q143.84-24.88 145.12-24.96L145.12-24.96L146.68-25Z M158.72 0.48Q155.92 0.48 153.74-0.84Q151.56-2.16 150.38-4.38Q149.20-6.60 149.20-9.20L149.20-9.20Q149.20-12.32 150.84-14.60Q152.48-16.88 154.98-18.04Q157.48-19.20 160.08-19.20L160.08-19.20Q162.88-19.20 165-17.84Q167.12-16.48 168.26-14.28Q169.40-12.08 169.40-9.68L169.40-9.68Q169.40-6.96 167.96-4.62Q166.52-2.28 164.06-0.90Q161.60 0.48 158.72 0.48L158.72 0.48ZM159.80-0.32Q163.12-0.32 165.10-2.52Q167.08-4.72 167.08-8.64L167.08-8.64Q167.08-11.32 166.12-13.54Q165.16-15.76 163.28-17.08Q161.40-18.40 158.76-18.40L158.76-18.40Q155.32-18.40 153.42-16.20Q151.52-14 151.52-10.16L151.52-10.16Q151.52-7.44 152.50-5.20Q153.48-2.96 155.36-1.64Q157.24-0.32 159.80-0.32L159.80-0.32Z M182.80 0.48Q179.60 0.48 177.22-0.86Q174.84-2.20 173.60-4.40Q172.36-6.60 172.36-9.04L172.36-9.04Q172.36-12.16 173.78-14.46Q175.20-16.76 177.80-17.98Q180.40-19.20 183.88-19.20L183.88-19.20Q185.56-19.20 187.04-18.88Q188.52-18.56 189.56-17.96L189.56-17.96Q189.76-17.84 189.84-17.64Q189.92-17.44 189.96-17.08L189.96-17.08L190.40-13.32Q190.40-13.20 190.18-13.18Q189.96-13.16 189.92-13.28L189.92-13.28Q189.16-16.16 187.42-17.42Q185.68-18.68 182.92-18.68L182.92-18.68Q179.24-18.68 177-16.22Q174.76-13.76 174.76-9.56L174.76-9.56Q174.76-6.76 175.86-4.60Q176.96-2.44 179-1.24Q181.04-0.04 183.76-0.04L183.76-0.04Q185.92-0.04 186.90-0.42Q187.88-0.80 188.22-1.82Q188.56-2.84 188.56-5.04L188.56-5.04Q188.56-6.08 188.32-6.50Q188.08-6.92 187.34-7.06Q186.60-7.20 184.72-7.20L184.72-7.20Q184.48-7.20 184.48-7.52L184.48-7.52Q184.48-7.64 184.54-7.74Q184.60-7.84 184.68-7.84L184.68-7.84Q186.76-7.68 188.88-7.68L188.88-7.68Q189.84-7.68 192.08-7.76L192.08-7.76Q192.16-7.76 192.22-7.66Q192.28-7.56 192.28-7.48L192.28-7.48Q192.28-7.20 192.08-7.20L192.08-7.20Q191.24-7.24 190.92-7.08Q190.60-6.92 190.50-6.42Q190.40-5.92 190.40-4.64L190.40-4.64Q190.40-2.84 190.48-2.12Q190.56-1.40 190.56-1.12L190.56-1.12Q190.56-0.88 190.50-0.82Q190.44-0.76 190.12-0.64L190.12-0.64Q187.56 0.48 182.80 0.48L182.80 0.48Z M212.24-15Q212.24-16.32 211.98-17Q211.72-17.68 211.08-17.96Q210.44-18.24 209.20-18.24L209.20-18.24Q209.08-18.24 209.08-18.48Q209.08-18.72 209.20-18.72L209.20-18.72L210.72-18.68Q211.92-18.60 212.60-18.60L212.60-18.60Q213.16-18.60 214.28-18.68L214.28-18.68L215.72-18.72Q215.80-18.72 215.80-18.48Q215.80-18.24 215.72-18.24L215.72-18.24Q214.60-18.24 214.04-17.96Q213.48-17.68 213.26-17Q213.04-16.32 213.04-15L213.04-15L213.04-7.36Q213.04-3.64 210.94-1.56Q208.84 0.52 205.32 0.52L205.32 0.52Q203.08 0.52 201.26-0.38Q199.44-1.28 198.38-2.96Q197.32-4.64 197.32-6.96L197.32-6.96L197.32-15.48Q197.32-16.68 197.08-17.24Q196.84-17.80 196.22-18.02Q195.60-18.24 194.24-18.24L194.24-18.24Q194.12-18.24 194.12-18.48Q194.12-18.72 194.24-18.72L194.24-18.72L196-18.68Q197.44-18.60 198.24-18.60L198.24-18.60Q199.24-18.60 200.68-18.68L200.68-18.68L202.36-18.72Q202.48-18.72 202.48-18.48Q202.48-18.24 202.36-18.24L202.36-18.24Q201.04-18.24 200.40-18Q199.76-17.76 199.52-17.18Q199.28-16.60 199.28-15.40L199.28-15.40L199.28-8Q199.28-4.24 201.24-2.44Q203.20-0.64 206.20-0.64L206.20-0.64Q209.04-0.64 210.64-2.34Q212.24-4.04 212.24-7.28L212.24-7.28L212.24-15Z M232.84-5.32Q232.84-5.44 233.06-5.44Q233.28-5.44 233.28-5.32L233.28-5.32Q233.00-2.44 233.00-0.60L233.00-0.60Q233.00-0.28 232.88-0.14Q232.76 0 232.40 0L232.40 0L217.84 0Q217.76 0 217.76-0.24Q217.76-0.48 217.84-0.48L217.84-0.48Q219.20-0.48 219.84-0.68Q220.48-0.88 220.70-1.46Q220.92-2.04 220.92-3.24L220.92-3.24L220.92-15.48Q220.92-16.68 220.70-17.24Q220.48-17.80 219.84-18.02Q219.20-18.24 217.84-18.24L217.84-18.24Q217.76-18.24 217.76-18.48Q217.76-18.72 217.84-18.72L217.84-18.72L231.68-18.72Q232.08-18.72 232.08-18.40L232.08-18.40L232.12-15.92Q232.16-15.16 232.16-14L232.16-14Q232.16-13.88 231.92-13.88Q231.68-13.88 231.68-14L231.68-14Q231.68-15.88 230.60-17.04Q229.52-18.20 227.76-18.20L227.76-18.20L226.40-18.20Q224.88-18.20 224.18-17.98Q223.48-17.76 223.22-17.20Q222.96-16.64 222.96-15.44L222.96-15.44L222.96-9.96Q227.04-10 228.48-10.16Q229.92-10.32 230.08-10.32L230.08-10.32Q230.28-10.32 230.28-9.48L230.28-9.48Q230.28-8.60 230.08-8.60L230.08-8.60Q229.92-8.60 228.48-8.84Q227.04-9.08 222.96-9.12L222.96-9.12L222.96-3.40Q222.96-2.24 223.22-1.66Q223.48-1.08 224.20-0.86Q224.92-0.64 226.40-0.64L226.40-0.64L228.72-0.64Q230.28-0.64 231.40-1.94Q232.52-3.24 232.84-5.32L232.84-5.32Z M241.84-3.24Q241.84-2 242.06-1.44Q242.28-0.88 242.90-0.68Q243.52-0.48 244.92-0.48L244.92-0.48Q245.04-0.48 245.04-0.24Q245.04 0 244.92 0L244.92 0Q243.84 0 243.24-0.04L243.24-0.04L240.76-0.08L238.40-0.04Q237.76 0 236.64 0L236.64 0Q236.56 0 236.56-0.24Q236.56-0.48 236.64-0.48L236.64-0.48Q238.04-0.48 238.68-0.68Q239.32-0.88 239.54-1.46Q239.76-2.04 239.76-3.24L239.76-3.24L239.76-15.48Q239.76-16.68 239.54-17.24Q239.32-17.80 238.66-18.02Q238.00-18.24 236.64-18.24L236.64-18.24Q236.56-18.24 236.56-18.48Q236.56-18.72 236.64-18.72L236.64-18.72L238.40-18.68Q239.92-18.60 240.76-18.60L240.76-18.60Q241.76-18.60 243.28-18.68L243.28-18.68L244.92-18.72Q245.04-18.72 245.04-18.48Q245.04-18.24 244.92-18.24L244.92-18.24Q243.60-18.24 242.96-18Q242.32-17.76 242.08-17.18Q241.84-16.60 241.84-15.40L241.84-15.40L241.84-3.24Z M268.08-0.48Q268.16-0.48 268.16-0.24Q268.16 0 268.08 0L268.08 0L263.88 0Q263.16 0 261.24-2.40Q259.32-4.80 256.64-9.04L256.64-9.04Q255.60-8.88 254.96-8.88L254.96-8.88Q254.40-8.88 253.20-8.96L253.20-8.96L253.20-3.24Q253.20-2 253.42-1.44Q253.64-0.88 254.26-0.68Q254.88-0.48 256.28-0.48L256.28-0.48Q256.40-0.48 256.40-0.24Q256.40 0 256.28 0L256.28 0Q255.20 0 254.60-0.04L254.60-0.04L252.16-0.08L249.84-0.04Q249.20 0 248.04 0L248.04 0Q247.96 0 247.96-0.24Q247.96-0.48 248.04-0.48L248.04-0.48Q249.44-0.48 250.08-0.68Q250.72-0.88 250.96-1.46Q251.20-2.04 251.20-3.24L251.20-3.24L251.20-15.48Q251.20-16.68 250.96-17.24Q250.72-17.80 250.08-18.02Q249.44-18.24 248.08-18.24L248.08-18.24Q248.00-18.24 248.00-18.48Q248.00-18.72 248.08-18.72L248.08-18.72L249.88-18.68Q251.32-18.60 252.16-18.60L252.16-18.60Q252.92-18.60 253.52-18.64Q254.12-18.68 254.52-18.72L254.52-18.72Q255.76-18.84 256.84-18.84L256.84-18.84Q259.28-18.84 260.58-17.84Q261.88-16.84 261.88-14.96L261.88-14.96Q261.88-13.32 260.98-11.96Q260.08-10.60 258.56-9.76L258.56-9.76Q260.84-6.08 262.38-4.12Q263.92-2.16 265.24-1.32Q266.56-0.48 268.08-0.48L268.08-0.48ZM253.20-9.72Q253.96-9.56 255.24-9.56L255.24-9.56Q257.76-9.56 258.76-10.66Q259.76-11.76 259.76-13.88L259.76-13.88Q259.76-18.32 255.76-18.32L255.76-18.32Q254.16-18.32 253.68-17.64Q253.20-16.96 253.20-15.40L253.20-15.40L253.20-9.72Z M290.04-0.48Q290.20-0.48 290.20-0.24Q290.20 0 290.04 0L290.04 0Q289.32 0 287.72-0.08L287.72-0.08Q286.20-0.16 285.48-0.16L285.48-0.16Q284.92-0.16 283.88-0.08L283.88-0.08Q282.92 0 282.40 0L282.40 0Q282.24 0 282.24-0.24Q282.24-0.48 282.40-0.48L282.40-0.48Q283.48-0.48 284.02-0.76Q284.56-1.04 284.56-1.72L284.56-1.72Q284.56-2.36 284.08-3.36L284.08-3.36L281.32-9.36L275.44-9.36L273.68-4.92Q273.04-3.24 273.04-2.44L273.04-2.44Q273.04-1.40 273.78-0.94Q274.52-0.48 276.00-0.48L276.00-0.48Q276.20-0.48 276.20-0.24Q276.20 0 276.00 0L276.00 0Q275.40 0 274.36-0.08L274.36-0.08Q273.24-0.16 272.28-0.16L272.28-0.16Q271.28-0.16 269.92-0.08L269.92-0.08Q268.72 0 268.00 0L268.00 0Q267.84 0 267.84-0.24Q267.84-0.48 268.00-0.48L268.00-0.48Q269.24-0.48 269.96-0.82Q270.68-1.16 271.28-2.16Q271.88-3.16 272.76-5.28L272.76-5.28L278.48-19.32Q278.56-19.48 278.72-19.48Q278.88-19.48 278.92-19.32L278.92-19.32L285.36-5.48Q286.40-3.24 287.02-2.24Q287.64-1.24 288.30-0.86Q288.96-0.48 290.04-0.48L290.04-0.48ZM278.16-16.16L275.72-10L281.00-10L278.16-16.16Z"/></g>
</svg>
</g></g></svg>